<?xml version="1.0" encoding="UTF-8"?>
<svg id="Capa_1" data-name="Capa 1" xmlns="http://www.w3.org/2000/svg" viewBox="0 0 163.99 50.13">
  <defs>
    <style>
      .cls-1 {
        fill: #74b74a;
      }

      .cls-2 {
        fill: #009cda;
      }
    </style>
  </defs>
  <g>
    <g>
      <path class="cls-1" d="M43.01.84l-15.45,36.53h-12.11L0,.84h13.26l8.72,21.35L30.9.84h12.11Z"/>
      <path class="cls-1" d="M80.06,19.1c0-11.22,8.61-19.1,20.35-19.1,7.15,0,12.79,2.61,16.39,7.31l-7.78,6.94c-2.14-2.71-4.7-4.28-7.99-4.28-5.12,0-8.56,3.55-8.56,9.13s3.44,9.13,8.56,9.13c3.29,0,5.85-1.57,7.99-4.28l7.78,6.94c-3.6,4.7-9.24,7.31-16.39,7.31-11.74,0-20.35-7.88-20.35-19.1Z"/>
      <path class="cls-1" d="M148.8,31h-13.88l-2.45,6.37h-12.53L135.91.84h12.11l15.97,36.53h-12.73l-2.45-6.37ZM145.41,22.13l-3.55-9.19-3.55,9.19h7.1Z"/>
    </g>
    <g>
      <path class="cls-2" d="M51.25,6.04c2.9,2.15,4.46,4.64,6.13,7.8l.6,1.19c-2.33-.4-4.82-.72-7.3-1.23-.26-.05-.69-.15-.95-.21h0c-.79-.16-1.7-.47-2.38-.83-2.95-1.56-4.74-4.86-4.43-8.27h0c.17-.83,1.04-1.45,1.87-1.27h0c2.37.49,4.61,1.5,6.47,2.83h0Z"/>
      <path class="cls-2" d="M43.81,20.5c.08.19.19.36.33.52.79.92,1.91,1.58,3.18,1.88,1.87.45,3.78-.07,5.16-1.21h0c1.78-1.71,3.59-3.61,4.71-5.68l-.34-.12c-2.88-.68-4.8-1.61-8.07-.85-.77.18-1.51.44-2.23.77h-.02c-1.1.62-2.14,1.67-2.73,2.9-.26.56-.25,1.22,0,1.78h0Z"/>
      <path class="cls-2" d="M71.62,6.56c-3.01,1.99-4.7,4.4-6.52,7.47l-.66,1.16c2.35-.28,4.85-.47,7.35-.86.27-.04.7-.11.96-.16h0c.8-.12,1.72-.38,2.42-.7,3.02-1.4,4.98-4.61,4.85-8.03h0c-.13-.84-.97-1.5-1.8-1.37h0c-2.39.37-4.68,1.26-6.6,2.49h0Z"/>
      <path class="cls-2" d="M78.3,21.39c-.09.18-.21.35-.35.5-.84.87-1.99,1.48-3.27,1.71-1.89.35-3.77-.27-5.09-1.48h0c-1.69-1.8-3.4-3.79-4.41-5.91l.34-.1c2.92-.53,4.88-1.36,8.11-.43.76.22,1.49.52,2.19.88h.02c1.07.68,2.06,1.77,2.57,3.04.23.58.19,1.23-.1,1.78h0Z"/>
      <g>
        <path class="cls-2" d="M63.45,5.38c.5-1.45,1.06-2.96,2.29-3.87.39-.29.88-.51,1.36-.44.15.02.34.13.29.28-.04.13-.21.15-.34.16-.71.05-1.35.46-1.82,1s-.77,1.19-1.02,1.85c-.15.4-.37.85-.76,1.02h0Z"/>
        <path class="cls-2" d="M63.6,5.43c.48-1.42,1.05-3.02,2.37-3.88.18-.12.37-.22.58-.28.18-.05.41-.09.59-.03.03.01.05.03.08.04.02.01.02.02.02.03-.01.03-.12.04-.16.04-.19.02-.38.05-.57.1-.79.25-1.4.85-1.82,1.54-.25.42-.45.86-.62,1.32-.14.36-.32.76-.69.93-.18.09-.02.35.16.27.37-.17.59-.54.75-.9.18-.41.33-.83.55-1.23.42-.76,1.06-1.46,1.93-1.67.19-.05.41-.02.59-.11s.26-.29.16-.46c-.23-.37-.86-.25-1.2-.13-.8.31-1.43,1-1.87,1.71-.51.81-.83,1.71-1.13,2.61-.07.19.24.27.3.08Z"/>
      </g>
      <g>
        <path class="cls-2" d="M59.05,5.51c-.42-1.47-.9-3.01-2.09-3.98-.38-.31-.85-.56-1.33-.51-.15.01-.34.12-.31.27.03.13.2.16.33.18.7.09,1.33.53,1.76,1.09s.71,1.23.93,1.9c.13.4.33.87.71,1.06h0Z"/>
        <path class="cls-2" d="M59.2,5.47c-.23-.82-.48-1.64-.86-2.4s-.92-1.48-1.65-1.92c-.35-.21-.86-.4-1.25-.23-.17.07-.31.23-.26.43s.25.25.43.27c.89.12,1.57.75,2,1.51.26.45.44.94.61,1.44.14.42.35.87.76,1.09.18.09.33-.17.16-.27-.32-.17-.48-.52-.59-.84-.15-.41-.28-.82-.47-1.21-.35-.74-.88-1.42-1.63-1.79-.17-.08-.35-.15-.53-.19-.05-.01-.43-.04-.43-.1,0,0,.09-.05.12-.06.09-.02.19-.02.28,0,.2.02.4.09.58.19.68.37,1.18,1.03,1.54,1.7.42.78.67,1.64.91,2.48.05.19.36.11.3-.08Z"/>
      </g>
      <path class="cls-2" d="M53.31,28.03c3.63-4.3,11.38-4.09,14.78.38.07.07.03.2-.08.15-3.92-2.06-8.66-2.48-12.86-1.06-.6.19-1.19.42-1.77.68-.07.04-.16-.06-.1-.13,0,0,.02-.03.02-.03h0Z"/>
      <path class="cls-2" d="M56.22,23.3c1.83-3.45,7.64-3.27,9.25.29.03.06-.04.14-.11.1-.35-.18-.71-.33-1.08-.47-2.56-1-5.49-.88-7.99.23-.1.03-.14-.07-.08-.16h0Z"/>
      <path class="cls-2" d="M59.21,12.63c.73-1.44,3.13-1.38,3.79.1.01.02.02.05,0,.07-1.17-.56-2.55-.64-3.74-.1-.04.01-.06-.04-.03-.07h0Z"/>
      <path class="cls-2" d="M58.47,10.81c1.24-1.7,4.22-1.61,5.36.15.02.03-.02.07-.05.05-1.63-.85-3.61-.9-5.29-.14-.04.02-.07-.04-.03-.07h0Z"/>
      <path class="cls-2" d="M59.46,8.85c.63-1.4,2.93-1.33,3.49.09,0,.02.02.06-.01.07-1.08-.52-2.34-.58-3.44-.09-.04.01-.06-.04-.03-.07h0Z"/>
      <path class="cls-2" d="M56.16,31.75c1.72-3.4,7.42-3.22,8.92.28.03.06-.04.13-.11.1-.34-.17-.69-.32-1.04-.45-2.46-.96-5.29-.84-7.7.22-.1.03-.14-.07-.08-.16h0Z"/>
      <path class="cls-2" d="M61.04,14.88l1.87,1.59,3.38,3.25c.86.83,1.61,1.77,2.32,2.82,2.21,3.28,2.59,6.7.33,10.25-1.11,1.73-3.05,3.64-4.52,4.85h0c-.26.22-.61.32-.98.31-.81-.02-1.45-.69-1.43-1.5.02-.76.63-1.38,1.37-1.43h0c.06,0-.05,0,0,0,.31-.03.69-.19.91-.38h0c1.12-.97,2.27-2.28,3.08-3.54,1.48-2.28,1.34-4.18-.05-6.4-.82-1.3-2.37-3.04-3.43-4l-2.94-2.65h0l-3.07,2.5c-1.11.9-2.75,2.56-3.63,3.82-1.51,2.15-1.74,4.04-.38,6.39.75,1.3,1.82,2.66,2.9,3.69h0c.21.2.59.38.89.42.05,0-.06,0,0,0h0c.74.09,1.31.74,1.29,1.5-.02.81-.69,1.45-1.5,1.43-.37,0-.71-.13-.96-.36h0c-1.4-1.28-3.25-3.29-4.26-5.07-2.08-3.66-1.53-7.06.85-10.22.76-1.01,1.56-1.91,2.46-2.7l3.54-3.07,1.95-1.5h0Z"/>
      <path class="cls-2" d="M60.93,16.36l-.85-.73-1.54-1.48c-.39-.38-.74-.81-1.06-1.29-1.01-1.5-1.18-3.06-.15-4.68.5-.79,1.39-1.66,2.06-2.21h0c.12-.1.28-.15.45-.14.37,0,.66.32.65.69,0,.35-.29.63-.63.65h0s.03,0,0,0c-.14.01-.31.09-.42.17h0c-.51.44-1.04,1.04-1.41,1.61-.67,1.04-.61,1.91.02,2.92.37.6,1.08,1.39,1.57,1.83l1.34,1.21h0l1.4-1.14c.51-.41,1.25-1.17,1.66-1.74.69-.98.79-1.84.17-2.92-.34-.59-.83-1.22-1.32-1.68h0c-.1-.09-.27-.17-.41-.19-.02,0,.03,0,0,0h0c-.34-.04-.6-.34-.59-.68,0-.37.32-.66.69-.65.17,0,.32.06.44.17h0c.64.58,1.48,1.5,1.95,2.32.95,1.67.7,3.23-.39,4.67-.35.46-.71.87-1.12,1.23l-1.62,1.4-.89.68h0Z"/>
    </g>
  </g>
  <g>
    <path class="cls-2" d="M32.23,42.11h.86v7.24h4.57v.73h-5.43v-7.96Z"/>
    <path class="cls-2" d="M47.06,46.37v3.71h-.79v-.93c-.37.61-1.1.99-2.11.99-1.39,0-2.24-.71-2.24-1.74,0-.92.61-1.7,2.37-1.7h1.95v-.36c0-1.02-.59-1.58-1.74-1.58-.79,0-1.54.27-2.04.71l-.37-.6c.62-.51,1.53-.81,2.49-.81,1.58,0,2.48.77,2.48,2.32ZM46.23,48.28v-.98h-1.92c-1.19,0-1.57.46-1.57,1.07,0,.69.57,1.13,1.55,1.13s1.62-.43,1.95-1.22Z"/>
    <path class="cls-2" d="M59.01,47.08c0,1.81-1.31,3.05-3.05,3.05-1.01,0-1.86-.43-2.37-1.24v1.18h-.79v-8.44h.83v3.6c.51-.77,1.35-1.18,2.33-1.18,1.75,0,3.05,1.23,3.05,3.04ZM58.18,47.08c0-1.4-.99-2.33-2.28-2.33s-2.28.93-2.28,2.33.98,2.33,2.28,2.33,2.28-.93,2.28-2.33Z"/>
    <path class="cls-2" d="M63.58,47.08c0-1.77,1.33-3.04,3.12-3.04s3.11,1.26,3.11,3.04-1.32,3.05-3.11,3.05-3.12-1.27-3.12-3.05ZM68.97,47.08c0-1.4-.97-2.33-2.27-2.33s-2.28.93-2.28,2.33.98,2.33,2.28,2.33,2.27-.93,2.27-2.33Z"/>
    <path class="cls-2" d="M78.09,44.05v.79c-.07,0-.14-.01-.2-.01-1.28,0-2.06.8-2.06,2.21v3.05h-.83v-5.98h.79v1.17c.38-.8,1.16-1.22,2.3-1.22Z"/>
    <path class="cls-2" d="M87.69,46.37v3.71h-.79v-.93c-.37.61-1.1.99-2.11.99-1.39,0-2.24-.71-2.24-1.74,0-.92.61-1.7,2.37-1.7h1.95v-.36c0-1.02-.59-1.58-1.74-1.58-.79,0-1.54.27-2.04.71l-.37-.6c.62-.51,1.53-.81,2.49-.81,1.58,0,2.48.77,2.48,2.32ZM86.86,48.28v-.98h-1.92c-1.19,0-1.57.46-1.57,1.07,0,.69.57,1.13,1.55,1.13s1.62-.43,1.95-1.22Z"/>
    <path class="cls-2" d="M96.66,49.71c-.33.28-.82.42-1.29.42-1.15,0-1.79-.64-1.79-1.74v-3.62h-1.1v-.68h1.1v-1.31h.83v1.31h1.86v.68h-1.86v3.57c0,.71.37,1.09,1.06,1.09.34,0,.68-.1.91-.31l.29.58Z"/>
    <path class="cls-2" d="M100.82,47.08c0-1.77,1.33-3.04,3.12-3.04s3.11,1.26,3.11,3.04-1.32,3.05-3.11,3.05-3.12-1.27-3.12-3.05ZM106.21,47.08c0-1.4-.97-2.33-2.27-2.33s-2.28.93-2.28,2.33.98,2.33,2.28,2.33,2.27-.93,2.27-2.33Z"/>
    <path class="cls-2" d="M115.32,44.05v.79c-.07,0-.14-.01-.2-.01-1.28,0-2.06.8-2.06,2.21v3.05h-.83v-5.98h.79v1.17c.38-.8,1.16-1.22,2.29-1.22Z"/>
    <path class="cls-2" d="M120.12,42.2c0-.31.27-.57.61-.57s.61.25.61.56c0,.33-.26.59-.61.59s-.61-.26-.61-.58ZM120.31,44.09h.83v5.98h-.83v-5.98Z"/>
    <path class="cls-2" d="M126.32,47.08c0-1.77,1.33-3.04,3.12-3.04s3.11,1.26,3.11,3.04-1.32,3.05-3.11,3.05-3.12-1.27-3.12-3.05ZM131.72,47.08c0-1.4-.97-2.33-2.27-2.33s-2.28.93-2.28,2.33.98,2.33,2.28,2.33,2.27-.93,2.27-2.33Z"/>
  </g>
</svg>