<svg xmlns="http://www.w3.org/2000/svg" viewBox="0 0 460 190" role="img" aria-labelledby="title desc">
  <title id="title">VICA Laboratorio</title>
  <desc id="desc">Logo institucional VICA Laboratorio</desc>
  <rect width="460" height="190" fill="#ffffff"/>
  <g fill="#72b844" font-family="Arial, Helvetica, sans-serif" font-weight="900">
    <text x="16" y="112" font-size="102" letter-spacing="-6">V</text>
    <text x="251" y="112" font-size="102" letter-spacing="-6">CA</text>
  </g>
  <g transform="translate(153 33)">
    <circle cx="45" cy="70" r="8" fill="#1598cf"/>
    <ellipse cx="26" cy="55" rx="16" ry="8" fill="#1598cf" transform="rotate(28 26 55)"/>
    <ellipse cx="64" cy="55" rx="16" ry="8" fill="#1598cf" transform="rotate(-28 64 55)"/>
    <ellipse cx="26" cy="82" rx="18" ry="9" fill="#1598cf" transform="rotate(-26 26 82)"/>
    <ellipse cx="64" cy="82" rx="18" ry="9" fill="#1598cf" transform="rotate(26 64 82)"/>
    <path d="M45 78 C38 92 34 103 25 116" fill="none" stroke="#1598cf" stroke-width="5" stroke-linecap="round"/>
    <path d="M45 78 C52 92 56 103 65 116" fill="none" stroke="#1598cf" stroke-width="5" stroke-linecap="round"/>
    <path d="M45 57 C41 41 31 28 18 20" fill="none" stroke="#1598cf" stroke-width="4" stroke-linecap="round"/>
    <path d="M45 57 C49 41 59 28 72 20" fill="none" stroke="#1598cf" stroke-width="4" stroke-linecap="round"/>
    <circle cx="16" cy="18" r="3.5" fill="#1598cf"/>
    <circle cx="74" cy="18" r="3.5" fill="#1598cf"/>
  </g>
  <text x="106" y="158" fill="#1598cf" font-family="Arial, Helvetica, sans-serif" font-size="30" letter-spacing="13">Laboratorio</text>
</svg>
